HIERARCHY
ROOT Hips
{
 OFFSET 0.000000 0.000000 0.000000
 CHANNELS 6 Xposition Yposition Zposition Yrotation Xrotation Zrotation
 JOINT Chest
 {
  OFFSET 0.000000 11.395451 -0.039534
  CHANNELS 3 Yrotation Xrotation Zrotation
  JOINT Chest2
  {
   OFFSET 0.000000 9.398669 0.071813
   CHANNELS 3 Yrotation Xrotation Zrotation
   JOINT Chest3
   {
    OFFSET 0.000000 8.489801 0.000000
    CHANNELS 3 Yrotation Xrotation Zrotation
    JOINT Chest4
    {
     OFFSET 0.000000 8.489801 0.000000
     CHANNELS 3 Yrotation Xrotation Zrotation
     JOINT Neck
     {
      OFFSET 0.000000 12.404889 0.000000
      CHANNELS 3 Yrotation Xrotation Zrotation
      JOINT Head
      {
       OFFSET 0.000000 8.903270 0.092239
       CHANNELS 3 Yrotation Xrotation Zrotation
       End Site
       {
        OFFSET 0.000000 17.592497 0.007158
       }
      }
     }
     JOINT RightCollar
     {
      OFFSET -3.196775 6.966722 0.000000
      CHANNELS 3 Yrotation Xrotation Zrotation
      JOINT RightShoulder
      {
       OFFSET -15.955896 0.000000 0.000000
       CHANNELS 3 Yrotation Xrotation Zrotation
       JOINT RightElbow
       {
        OFFSET -24.792472 0.000000 0.000000
        CHANNELS 3 Yrotation Xrotation Zrotation
        JOINT RightWrist
        {
         OFFSET -20.900115 0.000000 0.025002
         CHANNELS 3 Yrotation Xrotation Zrotation
         End Site
         {
          OFFSET -16.056692 0.000000 0.000000
         }
        }
       }
      }
     }
     JOINT LeftCollar
     {
      OFFSET 3.196775 6.966722 0.000000
      CHANNELS 3 Yrotation Xrotation Zrotation
      JOINT LeftShoulder
      {
       OFFSET 15.955896 0.000000 0.000000
       CHANNELS 3 Yrotation Xrotation Zrotation
       JOINT LeftElbow
       {
        OFFSET 24.792472 0.000000 0.000000
        CHANNELS 3 Yrotation Xrotation Zrotation
        JOINT LeftWrist
        {
         OFFSET 20.900115 0.000000 0.025002
         CHANNELS 3 Yrotation Xrotation Zrotation
         End Site
         {
          OFFSET 16.056692 0.000000 0.000000
         }
        }
       }
      }
     }
    }
   }
  }
 }
 JOINT RightHip
 {
  OFFSET -9.568995 0.193718 0.019767
  CHANNELS 3 Yrotation Xrotation Zrotation
  JOINT RightKnee
  {
   OFFSET 0.000000 -56.649296 0.015402
   CHANNELS 3 Yrotation Xrotation Zrotation
   JOINT RightAnkle
   {
    OFFSET 0.000000 -41.365147 0.021264
    CHANNELS 3 Yrotation Xrotation Zrotation
    JOINT RightToe
    {
     OFFSET 0.000000 -7.465940 17.672538
     CHANNELS 3 Yrotation Xrotation Zrotation
     End Site
     {
      OFFSET 0.000000 -1.736315 7.837145
     }
    }
   }
  }
 }
 JOINT LeftHip
 {
  OFFSET 9.568995 0.193718 0.019767
  CHANNELS 3 Yrotation Xrotation Zrotation
  JOINT LeftKnee
  {
   OFFSET 0.000000 -56.649296 0.015402
   CHANNELS 3 Yrotation Xrotation Zrotation
   JOINT LeftAnkle
   {
    OFFSET 0.000000 -41.365147 0.021264
    CHANNELS 3 Yrotation Xrotation Zrotation
    JOINT LeftToe
    {
     OFFSET 0.000000 -7.465940 17.672538
     CHANNELS 3 Yrotation Xrotation Zrotation
     End Site
     {
      OFFSET 0.000000 -1.736315 7.837145
     }
    }
   }
  }
 }
}
MOTION
Frames: 16
Frame Time: 0.016667
220.647953 54.914183 487.524747 -103.405789 -20.355226 -0.812773 -1.549454 13.361798 0.151220 -0.688190 5.938053 0.111638 -0.688190 5.938053 0.111638 -0.516768 4.453421 0.090362 2.257627 13.094035 -0.026089 4.294371 -11.833336 -0.974494 5.388267 8.146604 9.668959 29.399039 -34.426481 64.481691 21.401730 18.743337 -13.383798 -5.139610 2.434141 -14.109639 -4.064561 12.830942 -7.077538 -26.599336 -37.589485 -67.065259 -20.010490 12.509820 14.997053 -2.765649 7.679872 17.433815 -21.391400 -63.481252 12.000792 173.183873 85.196880 172.987507 8.550230 -9.601272 -5.393818 0.000000 0.000000 0.000000 36.132707 -63.366008 -22.089889 165.297818 87.146170 169.059982 3.705261 -5.853782 6.674548 0.019018 -1.034447 4.444434
220.647346 54.917955 487.516780 -103.417797 -20.347144 -0.801794 -1.547091 13.361617 0.149612 -0.687100 5.937979 0.110860 -0.687100 5.937979 0.110860 -0.515944 4.453366 0.089767 2.259517 13.096044 -0.023825 4.296968 -11.829633 -0.970896 5.385828 8.143459 9.676893 29.391309 -34.428223 64.484821 21.417176 18.738249 -13.376339 -5.135594 2.431155 -14.105133 -4.062805 12.825206 -7.077086 -26.585395 -37.582620 -67.068520 -20.022846 12.496413 14.988628 -2.776729 7.675745 17.438004 -21.410415 -63.484058 12.028569 173.193467 85.198400 172.985525 8.547942 -9.604740 -5.397291 -0.000000 -0.000000 -0.000000 36.149499 -63.367425 -22.091092 165.377516 87.148398 169.135610 3.702195 -5.856859 6.674432 0.018979 -1.034714 4.442801
220.647059 54.921527 487.509661 -103.429974 -20.338184 -0.791555 -1.546666 13.360786 0.148010 -0.686867 5.937615 0.110138 -0.686867 5.937615 0.110138 -0.515762 4.453094 0.089224 2.260378 13.097160 -0.019147 4.296651 -11.827709 -0.962333 5.384364 8.140409 9.684917 29.378794 -34.429749 64.488531 21.437359 18.734406 -13.361475 -5.131093 2.429974 -14.102927 -4.059819 12.820020 -7.076946 -26.572635 -37.571667 -67.068824 -20.039451 12.480088 14.977143 -2.787144 7.670223 17.444465 -21.439042 -63.487048 12.064422 173.182879 85.199907 172.960123 8.545264 -9.609117 -5.399255 0.000000 -0.000000 0.000000 36.169227 -63.369363 -22.096306 165.460355 87.150957 169.216738 3.700823 -5.859966 6.673870 0.018934 -1.034841 4.440731
220.646888 54.924965 487.504573 -103.444415 -20.329601 -0.780413 -1.547382 13.361165 0.146906 -0.687151 5.937787 0.109673 -0.687151 5.937787 0.109673 -0.515970 4.453224 0.088878 2.259599 13.097867 -0.014920 4.293420 -11.826580 -0.953971 5.390167 8.136920 9.692502 29.364599 -34.427713 64.487398 21.464534 18.726359 -13.345261 -5.127314 2.428729 -14.102440 -4.054087 12.815358 -7.077774 -26.559490 -37.561972 -67.072222 -20.058393 12.468207 14.968524 -2.795656 7.665712 17.449610 -21.469687 -63.490258 12.101351 173.169514 85.202107 172.931146 8.544569 -9.611137 -5.402529 0.000000 0.000000 0.000000 36.187816 -63.370945 -22.101252 165.531414 87.153633 169.285781 3.701367 -5.862875 6.672620 0.018888 -1.035028 4.438306
220.647009 54.928288 487.502435 -103.462312 -20.321358 -0.767326 -1.549177 13.363718 0.146642 -0.687934 5.938922 0.109616 -0.687934 5.938922 0.109616 -0.516556 4.454075 0.088845 2.256150 13.097786 -0.012413 4.285853 -11.826927 -0.947809 5.408830 8.132794 9.699453 29.346800 -34.419036 64.478609 21.503772 18.710576 -13.329610 -5.124496 2.426726 -14.104163 -4.043931 12.811393 -7.080227 -26.545045 -37.555469 -67.081509 -20.081734 12.465605 14.964237 -2.801229 7.663738 17.452133 -21.503844 -63.494207 12.140026 173.153191 85.205421 172.897951 8.546964 -9.608691 -5.408834 0.000000 0.000000 0.000000 36.205259 -63.371891 -22.106504 165.588080 87.156817 169.339831 3.704967 -5.865040 6.670186 0.018842 -1.035409 4.435358
220.647246 54.931477 487.502328 -103.482472 -20.313488 -0.753338 -1.552113 13.367482 0.146874 -0.689235 5.940592 0.109817 -0.689235 5.940592 0.109817 -0.517533 4.455328 0.089010 2.251061 13.097294 -0.010355 4.275373 -11.828072 -0.941844 5.434760 8.128238 9.705958 29.327314 -34.406811 64.464974 21.549996 18.690584 -13.312613 -5.122396 2.424658 -14.107605 -4.031029 12.807954 -7.083652 -26.530216 -37.550221 -67.093891 -20.107416 12.467449 14.962816 -2.804897 7.662776 17.453343 -21.540026 -63.498370 12.179784 173.134023 85.209431 172.861115 8.551340 -9.603888 -5.416448 -0.000000 -0.000000 0.000000 36.221561 -63.372482 -22.111487 165.632916 87.160123 169.381745 3.710483 -5.867006 6.667063 0.018796 -1.035851 4.432055
220.646864 54.934540 487.502669 -103.503425 -20.307349 -0.739939 -1.555580 13.371425 0.147072 -0.690769 5.942343 0.110018 -0.690769 5.942343 0.110018 -0.518685 4.456640 0.089177 2.246811 13.097999 -0.007809 4.266245 -11.826985 -0.935250 5.457467 8.123319 9.712072 29.315004 -34.396942 64.449499 21.590250 18.671539 -13.294593 -5.121505 2.422737 -14.110719 -4.018903 12.804502 -7.086736 -26.516183 -37.545763 -67.107037 -20.127357 12.466600 14.965793 -2.808521 7.660652 17.453574 -21.566147 -63.501231 12.211607 173.129927 85.213592 172.842392 8.556745 -9.599797 -5.423022 0.000000 0.000000 0.000000 36.232660 -63.372680 -22.110199 165.658632 87.162165 169.402449 3.714720 -5.870181 6.664494 0.018759 -1.036163 4.428985
220.645362 54.937434 487.502705 -103.525056 -20.303824 -0.727977 -1.560458 13.375013 0.147097 -0.692921 5.943936 0.110182 -0.692921 5.943936 0.110182 -0.520299 4.457834 0.089323 2.244765 13.101038 -0.005031 4.261135 -11.821508 -0.929032 5.473484 8.117933 9.717727 29.317197 -34.391626 64.430654 21.618544 18.649785 -13.274062 -5.120043 2.420570 -14.110590 -4.008065 12.801588 -7.089194 -26.501299 -37.540514 -67.122240 -20.141544 12.461783 14.975709 -2.809840 7.658029 17.452623 -21.578359 -63.501350 12.233012 173.159357 85.217839 172.861590 8.564017 -9.598227 -5.427802 0.000000 0.000000 0.000000 36.232161 -63.373357 -22.095494 165.660490 87.161798 169.394742 3.716382 -5.875470 6.662610 0.018760 -1.035947 4.426381
220.643241 54.940203 487.503189 -103.547482 -20.302030 -0.716603 -1.565866 13.378781 0.147087 -0.695306 5.945609 0.110347 -0.695306 5.945609 0.110347 -0.522088 4.459088 0.089472 2.243556 13.105277 -0.001768 4.257376 -11.813796 -0.922190 5.486279 8.112183 9.722999 29.326573 -34.388654 64.409971 21.640862 18.628978 -13.252517 -5.119792 2.418548 -14.110134 -3.998001 12.798660 -7.091308 -26.487211 -37.536057 -67.138205 -20.149990 12.454272 14.990023 -2.811115 7.654245 17.450693 -21.580496 -63.500182 12.246464 173.203997 85.222237 172.899039 8.572320 -9.597367 -5.431542 0.000000 -0.000000 0.000000 36.226457 -63.373638 -22.074517 165.643188 87.160168 169.365784 3.716766 -5.881970 6.661280 0.018768 -1.035600 4.424011
220.641272 54.942992 487.504806 -103.569577 -20.300669 -0.704765 -1.568557 13.383304 0.146925 -0.696487 5.947618 0.110369 -0.696487 5.947618 0.110369 -0.522973 4.460595 0.089502 2.241552 13.108920 0.003689 4.251232 -11.807295 -0.910885 5.495762 8.106437 9.728161 29.330038 -34.387321 64.395046 21.662227 18.625245 -13.234734 -5.126582 2.418057 -14.116044 -3.990693 12.793510 -7.092622 -26.480025 -37.536676 -67.148716 -20.144658 12.440740 15.002633 -2.820994 7.645147 17.448733 -21.571991 -63.500568 12.250360 173.226580 85.226446 172.917247 8.578184 -9.594859 -5.434149 0.000000 0.000000 0.000000 36.230684 -63.370875 -22.062700 165.613513 87.159333 169.327957 3.716566 -5.888375 6.661346 0.018703 -1.036132 4.421759
220.639805 54.945628 487.507941 -103.591102 -20.299370 -0.692173 -1.567014 13.389191 0.146662 -0.695796 5.950236 0.110228 -0.695796 5.950236 0.110228 -0.522454 4.462559 0.089393 2.237976 13.110682 0.012664 4.240723 -11.804459 -0.892339 5.501136 8.101307 9.733973 29.319335 -34.388961 64.390020 21.687218 18.648918 -13.221541 -5.143839 2.420780 -14.128653 -3.987594 12.785866 -7.092572 -26.482779 -37.543752 -67.149179 -20.123566 12.420298 15.009948 -2.844742 7.628935 17.448662 -21.552221 -63.503809 12.243779 173.193184 85.229966 172.882625 8.578985 -9.589442 -5.435625 -0.000000 0.000000 0.000000 36.254447 -63.363531 -22.069569 165.567981 87.159878 169.282164 3.716393 -5.893923 6.662784 0.018501 -1.038440 4.419544
220.638491 54.948284 487.512207 -103.612298 -20.298504 -0.679116 -1.562754 13.395834 0.146246 -0.693901 5.953192 0.109943 -0.693901 5.953192 0.109943 -0.521031 4.464776 0.089164 2.233610 13.111848 0.023836 4.227835 -11.802832 -0.869324 5.503198 8.096176 9.739676 29.302718 -34.392244 64.390753 21.711288 18.689672 -13.212078 -5.168141 2.425031 -14.147625 -3.987248 12.775999 -7.091719 -26.492432 -37.555905 -67.144181 -20.088702 12.393832 15.015537 -2.877094 7.607410 17.448560 -21.521805 -63.508604 12.227638 173.137591 85.233293 172.828622 8.577349 -9.582377 -5.435970 -0.000000 -0.000000 0.000000 36.288128 -63.353145 -22.085587 165.509963 87.161216 169.227389 3.715636 -5.899378 6.665618 0.018224 -1.041627 4.417448
220.637054 54.951621 487.517131 -103.632759 -20.297893 -0.665413 -1.557067 13.401982 0.145409 -0.691365 5.955929 0.109429 -0.691365 5.955929 0.109429 -0.519125 4.466830 0.088757 2.229170 13.114477 0.034952 4.214785 -11.798484 -0.846330 5.504257 8.089566 9.743262 29.291863 -34.392470 64.392419 21.725778 18.732652 -13.208597 -5.195050 2.427131 -14.178657 -3.987276 12.762515 -7.091286 -26.505965 -37.573276 -67.141269 -20.037985 12.360667 15.024037 -2.910897 7.581816 17.443610 -21.482042 -63.513891 12.203094 173.124096 85.237593 172.818313 8.577681 -9.575088 -5.435087 0.000000 -0.000000 0.000000 36.318035 -63.341678 -22.097601 165.456441 87.163645 169.173043 3.713158 -5.905717 6.670761 0.017983 -1.044008 4.415595
220.635270 54.956088 487.523478 -103.653628 -20.297473 -0.649895 -1.549215 13.407499 0.144102 -0.687860 5.958388 0.108643 -0.687860 5.958388 0.108643 -0.516491 4.468676 0.088136 2.224163 13.119950 0.046569 4.200374 -11.788888 -0.822054 5.505633 8.080435 9.743687 29.292446 -34.385264 64.392476 21.727105 18.773904 -13.215557 -5.225563 2.425143 -14.231070 -3.986980 12.742045 -7.092466 -26.524363 -37.600641 -67.145002 -19.959526 12.313227 15.039217 -2.948197 7.548533 17.428903 -21.431656 -63.519797 12.169372 173.196967 85.243748 172.894669 8.583440 -9.567438 -5.432321 0.000000 -0.000000 0.000000 36.341100 -63.328580 -22.101488 165.409174 87.167692 169.117001 3.707850 -5.914419 6.680328 0.017790 -1.044982 4.413578
220.633365 54.961236 487.530482 -103.673762 -20.297308 -0.633730 -1.539937 13.412522 0.142376 -0.683713 5.960629 0.107628 -0.683713 5.960629 0.107628 -0.513374 4.470359 0.087338 2.219081 13.126884 0.058131 4.185804 -11.776575 -0.797801 5.506004 8.069824 9.741993 29.298787 -34.374995 64.393466 21.718810 18.817383 -13.228537 -5.258729 2.420973 -14.295516 -3.987056 12.717957 -7.094071 -26.546635 -37.633229 -67.150825 -19.865244 12.259062 15.057285 -2.986922 7.511186 17.409313 -21.371908 -63.526180 12.127230 173.312381 85.250858 173.015163 8.591169 -9.559563 -5.428327 0.000000 0.000000 0.000000 36.360401 -63.314403 -22.101380 165.366330 87.172831 169.061315 3.700818 -5.924005 6.692204 0.017632 -1.045149 4.411805
220.631740 54.966370 487.535363 -103.689328 -20.297416 -0.620236 -1.532736 13.416212 0.140102 -0.680467 5.962279 0.106427 -0.680467 5.962279 0.106427 -0.510930 4.471598 0.086408 2.216109 13.133197 0.065715 4.176883 -11.765211 -0.781979 5.503716 8.059384 9.739309 29.305522 -34.370090 64.398182 21.702926 18.860101 -13.236477 -5.287149 2.416724 -14.349712 -3.987222 12.698965 -7.093754 -26.566800 -37.656862 -67.152614 -19.788734 12.220216 15.071573 -3.013760 7.481874 17.394733 -21.307920 -63.531573 12.080128 173.402283 85.257444 173.114421 8.594906 -9.553300 -5.424970 0.000000 0.000000 0.000000 36.371490 -63.302767 -22.096535 165.339634 87.177786 169.021797 3.694255 -5.931023 6.700952 0.017581 -1.044637 4.411628
